<svg width="50" height="50" viewBox="0 0 50 50" fill="none" xmlns="http://www.w3.org/2000/svg">
<path d="M42.6632 7.32154C37.95 2.59305 31.6657 0 25 0C18.3191 0 12.0348 2.59305 7.32154 7.32154C2.59305 12.0348 0 18.3191 0 25C0 31.6809 2.59305 37.95 7.32154 42.6785C12.0348 47.3917 18.3191 50 25 50C31.6809 50 37.95 47.407 42.6785 42.6785C47.3917 37.9652 50 31.6809 50 25C49.9847 18.3191 47.3917 12.0348 42.6632 7.32154Z" fill="#3CAF47"/>
<path d="M21.5641 28.6183L16.6526 23.7068C15.7069 22.7611 14.1511 22.7611 13.2054 23.7068C12.2597 24.6525 12.2597 26.2083 13.2054 27.154L19.8405 33.7892C20.7862 34.7349 22.342 34.7349 23.2877 33.7892L37.0919 19.985C38.0376 19.0393 38.0376 17.4835 37.0919 16.5378C36.1462 15.5921 34.5904 15.5921 33.6447 16.5378L21.5641 28.6183Z" fill="white"/>
</svg>
